<svg width="300" height="300" xmlns="http://www.w3.org/2000/svg">
 <g>
  <title>Layer 1</title>
  <rect fill="#5bcefa" stroke="#000" width="600" height="120" id="svg_8" y="480" x="0" stroke-width="0"/>
  <rect fill="#f3a9b8" stroke="#000" y="360" width="600" height="120" id="svg_9" stroke-width="0"/>
  <rect fill="#f3a9b8" stroke="#000" y="60" width="300" height="60" id="svg_12" stroke-width="0" x="0"/>
  <rect fill="#5bcefa" stroke="#000" width="300" height="60" id="svg_13" y="0" x="0" stroke-width="0"/>
  <path fill="none" stroke="#000" stroke-width="0" id="svg_26" d="m-444,256c1,0 2,0 3,0c2,0 4.85077,1.21005 9,4c4.83881,3.2536 11,6 19,12c8,6 15.4577,11.45923 25,20c8.43018,7.54535 15.78152,16.17877 24,26c6.82196,8.15234 11.91895,15.05859 17,22c2.95331,4.03461 6,8 9,11l1,1l0,1"/>
  <path fill="none" stroke="#000" stroke-width="0" id="svg_27" d="m-323,294c0,-1 -0.38269,-2.07611 0,-3c1.0824,-2.61313 5.22272,-4.724 9,-8c6.41025,-5.55957 11.93814,-10.07858 17,-14c7.9053,-6.12424 13,-11 18,-15c5,-4 8.74673,-7.37134 13,-10c3.80423,-2.35114 7.21167,-3.71413 10,-6c2.18735,-1.7932 4.5387,-3.60643 7,-5c3.58792,-2.03145 6.31001,-2.33749 9,-4c2.40601,-1.487 5,-4 7,-5c2,-1 3.07613,-2.61731 4,-3c1.30656,-0.5412 2,-3 2,-4l1,0l0,-1"/>
  <path fill="none" stroke="#000" stroke-width="5" id="svg_28" d="m-300,59c0,1 0.91232,4.03067 2,7c1.85226,5.05659 3.75238,11.0883 6,17c2.70651,7.11863 5.58481,15.16824 9,23c3.5752,8.19866 8.91324,17.03307 12,25c3.89108,10.04288 8.81213,21.07721 13,31c3.82957,9.07384 9.42482,19.80135 13,28c3.41519,7.83176 6.79568,14.09114 10,21c2.82246,6.08553 6.23174,11.92767 8,18c1.15277,3.95868 1.49756,9.9258 2,15c0.39415,3.98053 0,8 0,11l0,2l0,2l0,1"/>
  <rect fill="#5bcefa" stroke="#000" width="300" height="60" id="svg_31" y="240" x="0" stroke-width="0"/>
  <rect fill="#f3a9b8" stroke="#000" y="180" width="300" height="60" id="svg_32" stroke-width="0"/>
  <rect fill="#e5e5e5" stroke="#000" stroke-width="0" x="-180" y="183.5" width="139" height="6" id="svg_33"/>
  <rect fill="#ffffff" stroke="#000" stroke-width="0" x="0" y="120" width="303" height="60" id="svg_35"/>
  <text fill="#000000" stroke-width="0" x="81" y="163" id="svg_30" font-size="46" font-family="'Rasa'" text-anchor="start" xml:space="preserve" font-weight="normal" stroke="#000" font-style="normal">新干线</text>
 </g>

</svg>